<svg xmlns="http://www.w3.org/2000/svg" width="51.96" height="51.93" viewBox="0 0 51.96 51.93">
  <path id="Path_206" data-name="Path 206" d="M26.854-1278.5c-.435.02-1.647.134-2.3.219a25.755,25.755,0,0,0-4.9,1.155l-.61.211c-.167.057-.321.118-.346.13a1.471,1.471,0,0,1-.244.106,26.525,26.525,0,0,0-4.124,2.082c-.415.26-1.736,1.167-1.826,1.257a.182.182,0,0,1-.081.057.445.445,0,0,0-.13.089c-.057.053-.24.2-.407.333s-.549.455-.846.712-.586.5-.643.533a20.032,20.032,0,0,0-1.44,1.452.811.811,0,0,1-.15.2c-.358.374-1.517,1.781-1.517,1.838a.413.413,0,0,1-.094.13,3.222,3.222,0,0,0-.232.305,2.03,2.03,0,0,1-.163.224c-.045.037-.8,1.2-1.045,1.606-.451.756-.895,1.59-1.273,2.4-.183.4-.569,1.3-.569,1.342a1.49,1.49,0,0,1-.081.2c-.041.094-.134.333-.2.537s-.142.4-.163.447c-.045.1-.293.911-.451,1.484a25.608,25.608,0,0,0-.744,3.823,26.084,26.084,0,0,0,.59,9.43,24.968,24.968,0,0,0,1.631,4.62c.163.362.785,1.578.952,1.862A32.526,32.526,0,0,0,7.241-1237a4.126,4.126,0,0,1,.3.423,6.188,6.188,0,0,0,.549.7,25.089,25.089,0,0,0,2.351,2.444.143.143,0,0,1,.085.057c.057.069.72.651,1.126.984a32.045,32.045,0,0,0,2.822,2.017,28.367,28.367,0,0,0,3.477,1.789c.167.065.362.146.427.179.191.089,1.106.419,1.464.529.179.057.362.118.407.138.089.037.35.118.752.224.146.037.309.085.366.1.094.032.805.2,1.444.342.577.13,1.936.329,2.969.439.651.069,3.969.069,4.616,0,1.025-.11,2.351-.3,2.928-.435a25.429,25.429,0,0,0,3.721-1.057c.224-.081.464-.171.529-.191a.813.813,0,0,0,.163-.073.618.618,0,0,1,.142-.061,27.752,27.752,0,0,0,3.233-1.586,29.456,29.456,0,0,0,2.542-1.684,1.521,1.521,0,0,1,.309-.207,7.688,7.688,0,0,0,.708-.553,27.484,27.484,0,0,0,3.257-3.229c.142-.167.268-.313.281-.325a5.538,5.538,0,0,0,.447-.6.307.307,0,0,1,.073-.114c.126-.138.8-1.082,1.045-1.46.13-.2.293-.46.366-.569a27.683,27.683,0,0,0,1.9-3.66c.045-.114.106-.26.134-.325a25.816,25.816,0,0,0,1.224-3.871,16.8,16.8,0,0,0,.362-1.883c.033-.236.081-.537.1-.671a23.45,23.45,0,0,0,.191-2.928,25.144,25.144,0,0,0-.956-7.5,26.548,26.548,0,0,0-2.664-6.193c-.366-.6-.956-1.5-1.277-1.94-.167-.228-.6-.793-.622-.813s-.085-.1-.163-.2-.15-.191-.163-.2-.11-.13-.224-.264-.329-.39-.488-.573-.321-.374-.37-.435a25.544,25.544,0,0,0-3.131-2.859c-.065-.041-.281-.2-.484-.346-.622-.456-1.6-1.11-2.135-1.419-.281-.159-.525-.305-.549-.325-.155-.114-2.119-1.1-2.2-1.1-.008,0-.13-.053-.272-.118s-.382-.167-.541-.228-.346-.134-.419-.171c-.122-.053-.451-.171-1.065-.378a27.455,27.455,0,0,0-3.782-.956c-.39-.073-1.671-.232-2.46-.305C29.6-1278.489,27.468-1278.521,26.854-1278.5Zm-5.124,16.384c2.538,2.538,5.01,5,5.494,5.466l.878.854,5.466-5.47c3.005-3.009,5.482-5.47,5.506-5.47s.76.72,1.635,1.594l1.6,1.6-5.112,5.124c-2.814,2.818-5.283,5.3-5.49,5.51l-.378.386,5.49,5.49,5.49,5.49-1.614,1.615-1.619,1.619-5.47-5.47c-3.009-3.009-5.49-5.47-5.51-5.47-.057,0-.183.126-5.937,5.868l-5.083,5.071-1.6-1.6c-.874-.874-1.594-1.61-1.594-1.631s2.46-2.5,5.47-5.506l5.47-5.469-.813-.838c-.443-.459-2.9-2.932-5.466-5.494s-4.66-4.673-4.66-4.689c0-.049,3.144-3.2,3.192-3.2C17.1-1266.732,19.192-1264.654,21.73-1262.113Z" transform="translate(-2.092 1278.505)" fill="#fff"/>
</svg>
