<svg xmlns="http://www.w3.org/2000/svg" width="75.787" height="75.787" viewBox="0 0 75.787 75.787">
  <g id="github-icon" transform="translate(-152.857 -1561)">
    <g id="Group_520" data-name="Group 520" transform="translate(152.857 1561)">
      <path id="Path_20" data-name="Path 20" d="M5.83,0H69.957a5.83,5.83,0,0,1,5.83,5.83V69.957a5.83,5.83,0,0,1-5.83,5.83H5.83A5.83,5.83,0,0,1,0,69.957V5.83A5.83,5.83,0,0,1,5.83,0Z" transform="translate(0)"/>
    </g>
    <path id="iconmonstr-github-1" d="M30.844,0a30.847,30.847,0,0,0-9.749,60.112c1.54.285,2.038-.671,2.038-1.483V52.887c-8.58,1.866-10.366-3.64-10.366-3.64-1.4-3.565-3.426-4.513-3.426-4.513-2.8-1.915.213-1.874.213-1.874,3.1.216,4.727,3.179,4.727,3.179,2.75,4.714,7.215,3.352,8.975,2.563a6.544,6.544,0,0,1,1.959-4.123c-6.85-.784-14.052-3.429-14.052-15.244a11.938,11.938,0,0,1,3.177-8.279,11.094,11.094,0,0,1,.3-8.163s2.591-.828,8.485,3.161a29.235,29.235,0,0,1,15.445,0c5.889-3.989,8.474-3.161,8.474-3.161a11.084,11.084,0,0,1,.3,8.163,11.906,11.906,0,0,1,3.174,8.279c0,11.847-7.215,14.455-14.083,15.219,1.105.956,2.115,2.832,2.115,5.711v8.464c0,.82.493,1.784,2.059,1.48A30.849,30.849,0,0,0,30.844,0Z" transform="translate(160 1569)" fill="#fff"/>
  </g>
</svg>
