<svg id="javascript-icon" xmlns="http://www.w3.org/2000/svg" width="111.415" height="111.415" viewBox="0 0 111.415 111.415">
  <path id="Path_20" data-name="Path 20" d="M8.57,0h94.274a8.57,8.57,0,0,1,8.57,8.57v94.274a8.57,8.57,0,0,1-8.57,8.57H8.57A8.57,8.57,0,0,1,0,102.844V8.57A8.57,8.57,0,0,1,8.57,0Z" transform="translate(0)"/>
  <path id="Path_22" data-name="Path 22" d="M63.377,59.025c2.34,3.8,4.884,7.444,10.272,7.444,4.525,0,6.9-2.249,6.9-5.361,0-3.724-2.455-5.046-7.434-7.214l-2.729-1.163C62.508,49.389,57.269,45.2,57.269,36.357,57.269,28.206,63.509,22,73.26,22c6.944,0,11.932,2.4,15.531,8.7l-8.5,5.435c-1.87-3.342-3.893-4.657-7.028-4.657-3.2,0-5.225,2.019-5.225,4.657,0,3.26,2.029,4.579,6.714,6.6L77.477,43.9C86.761,47.857,92,51.9,92,60.973c0,9.781-7.725,15.142-18.095,15.142-10.143,0-15.9-5.09-19.109-11.391ZM24.191,59.3c1.711,3.064,4.312,5.422,8.053,5.422,3.578,0,5.638-1.414,5.638-6.91V22H49.155V59.546c0,11.388-6.605,16.569-16.251,16.569-8.716,0-15.007-5.905-17.57-11.391Z" transform="translate(8.949 25.375)" fill="#fff"/>
</svg>
