<svg xmlns="http://www.w3.org/2000/svg" width="75.787" height="75.787" viewBox="0 0 75.787 75.787">
  <path id="linkedin" d="M72.9,4H10.89A6.888,6.888,0,0,0,4,10.89V72.9a6.888,6.888,0,0,0,6.89,6.89H72.9a6.888,6.888,0,0,0,6.89-6.89V10.89A6.888,6.888,0,0,0,72.9,4ZM27.955,66.007H17.793v-32.7H27.955ZM22.771,28.634a5.923,5.923,0,1,1,5.922-5.925A5.925,5.925,0,0,1,22.771,28.634Zm43.25,37.373H55.866v-15.9c0-3.793-.069-8.671-5.281-8.671-5.288,0-6.1,4.13-6.1,8.4V66.007H34.328v-32.7h9.749v4.468h.138A10.679,10.679,0,0,1,53.83,32.5c10.29,0,12.191,6.773,12.191,15.578V66.007Z" transform="translate(-4 -4)"/>
</svg>
