<svg id="mysql-icon" xmlns="http://www.w3.org/2000/svg" width="111.415" height="111.415" viewBox="0 0 111.415 111.415">
  <g id="Group_13" data-name="Group 13" transform="translate(0 0)">
    <g id="Group_9" data-name="Group 9" transform="translate(0 0)">
      <g id="Group_6" data-name="Group 6" transform="translate(0)">
        <path id="Path_24" data-name="Path 24" d="M8.57,0h94.274a8.57,8.57,0,0,1,8.57,8.57v94.274a8.57,8.57,0,0,1-8.57,8.57H8.57A8.57,8.57,0,0,1,0,102.844V8.57A8.57,8.57,0,0,1,8.57,0Z" transform="translate(0)"/>
      </g>
    </g>
  </g>
  <path id="icon-mysql" d="M58.87,8a1.987,1.987,0,0,0-2.058,1.3c-.679,1.645,1.011,3.254,1.616,4.095a12.493,12.493,0,0,1,1.269,1.9c.2.435.229.87.4,1.328a34.516,34.516,0,0,0,1.63,3.46,11.67,11.67,0,0,0,.922,1.557c.214.288.575.42.634.863a7.143,7.143,0,0,0-.575,1.911,11.05,11.05,0,0,0,.745,8.47c.406.649,1.357,2.029,2.656,1.505,1.136-.465.885-1.9,1.21-3.18.074-.28.03-.494.177-.686v.059c.339.694.686,1.387,1.033,2.073a14.44,14.44,0,0,0,3.29,3.408c.6.45,1.07,1.232,1.844,1.5V37.5H73.6c-.148-.236-.384-.332-.575-.516a12.792,12.792,0,0,1-1.321-1.505,34.1,34.1,0,0,1-2.825-4.611c-.406-.775-.76-1.63-1.1-2.42-.133-.31-.133-.767-.406-.93a11.332,11.332,0,0,0-1.21,1.734,14.944,14.944,0,0,0-.694,3.807c-.1.037-.059.007-.111.059-.8-.2-1.092-1.026-1.387-1.734a10.859,10.859,0,0,1-.229-6.743c.17-.539.944-2.221.634-2.715-.147-.494-.649-.775-.922-1.151a8.722,8.722,0,0,1-.922-1.616c-.62-1.4-1.2-3.025-1.859-4.441a12.547,12.547,0,0,0-1.269-1.963,11.377,11.377,0,0,1-1.387-1.962c-.126-.28-.31-.738-.111-1.033a.451.451,0,0,1,.347-.347c.332-.258,1.261.081,1.616.229a14.222,14.222,0,0,1,2.479,1.269c.376.251.753.73,1.21.871h.517c.819.185,1.726.052,2.479.288a14.86,14.86,0,0,1,3.63,1.726,22.381,22.381,0,0,1,7.9,8.647c.3.575.435,1.129.7,1.734.524,1.225,1.2,2.494,1.726,3.689a16.9,16.9,0,0,0,1.785,3.4c.391.524,1.911.812,2.6,1.1a15.929,15.929,0,0,1,1.726.694c.878.524,1.719,1.151,2.538,1.734.413.288,1.667.915,1.734,1.439a11.6,11.6,0,0,0-4.9.694c-.376.162-.981.162-1.04.634.2.214.236.539.4.8a6.405,6.405,0,0,0,1.328,1.557c.524.391,1.055.812,1.616,1.158.989.6,2.1.944,3.054,1.549.561.361,1.129.812,1.675,1.21.273.206.45.516.8.642v-.059c-.185-.236-.229-.561-.4-.8l-.76-.76a12.321,12.321,0,0,0-2.648-2.53c-.789-.568-2.553-1.335-2.877-2.25l-.059-.059a12,12,0,0,0,1.726-.406c.871-.229,1.638-.17,2.531-.4.406-.118.812-.236,1.217-.347v-.236c-.45-.457-.775-1.077-1.269-1.5a36.718,36.718,0,0,0-4.154-3.113c-.8-.509-1.8-.841-2.648-1.269-.288-.148-.789-.221-.981-.465a12.035,12.035,0,0,1-1.04-1.955c-.723-1.394-1.431-2.914-2.073-4.382a23.68,23.68,0,0,0-1.269-2.885,25.485,25.485,0,0,0-9.8-9.458A11.643,11.643,0,0,0,66.1,10.568c-.642-.044-1.269-.081-1.911-.118a9.63,9.63,0,0,1-1.151-.871A9.409,9.409,0,0,0,58.87,8Zm6.249,6.256a4.294,4.294,0,0,0-1.04.118v.059h.059a7.486,7.486,0,0,0,.812,1.033c.192.406.376.812.568,1.217l.059-.059a1.423,1.423,0,0,0,.524-1.269c-.148-.148-.17-.339-.288-.516C65.642,14.6,65.325,14.463,65.119,14.257ZM3.53,38.212a7.037,7.037,0,0,0-1.859.347A2.147,2.147,0,0,0,0,40.934V55.217H3.781V41.281L9.026,53.2a3.024,3.024,0,0,0,3.268,2.014A2.984,2.984,0,0,0,15.533,53.2l5.245-11.612V55.217h3.777V40.934a2.141,2.141,0,0,0-1.675-2.376c-2.686-.848-4.493-.118-5.3,1.719L12.191,52.392,6.983,40.278A3.33,3.33,0,0,0,3.53,38.212Zm46.044.007c-1.49,0-6.131.177-6.131,3.777v2.331c0,1.653,1.453,3,4.6,3.335.354.022.708.052,1.062.052,0,0,3.674-.074,3.777-.052,2.125,0,1.889,1.653,1.889,1.889V51.44a1.787,1.787,0,0,1-1.911,1.889H43.443v1.889H52.9a8.163,8.163,0,0,0,3.4-.708c1.593-.73,2.25-1.719,2.25-3.018v-2.7c0-2.9-3.6-3.018-5.666-3.018H49.109c-1.483,0-1.712-.9-1.889-1.889V42c.177-.752.509-1.771,1.822-1.889h9.51V38.219Zm14.608,0c-2.789.384-3.77,1.771-3.77,3.777V51.44c0,1.837,1.025,2.944,3.135,3.519a7.139,7.139,0,0,0,1.955.28l4.205-.022h2.471l2.1,1.889h4.25L75.61,54.472c1.372-.568,1.8-1.439,1.8-3.069V42c0-2.007-1.306-3.394-4.095-3.777Zm15.146,0v13.14c0,2.28,1.291,3.564,4.707,3.822.317.015.642.037.959.037h9.443V53.329H85.71c-1.948,0-2.6-.819-2.6-1.985V38.219Zm-12.9,1.889h4.862A2.471,2.471,0,0,1,73.632,42s.029,8.794.029,9.443a1.236,1.236,0,0,1-.361.944l-1.026-.944H68l2.1,1.889H66.432a2.274,2.274,0,0,1-2.243-1.889V42.189A2.108,2.108,0,0,1,66.432,40.108ZM26.445,43.885c.074.074,0,8.049,0,8.2.029,1.653,2.125,3.1,5.408,3.128h5.924v.125c0,.354.258,1.535-1.889,1.763H26.445v1.889h9.849c1.668-.052,5.282-.428,5.26-3.32,0-.052.015-11.789,0-11.789H37.777v9.443c-.059,0-4.677.015-5.607,0-1.822-.029-1.977-1.07-1.948-1.468V43.885Z" transform="translate(10.003 21.997)" fill="#f9f6f6"/>
</svg>
