<svg id="node-icon" xmlns="http://www.w3.org/2000/svg" width="111.415" height="111.415" viewBox="0 0 111.415 111.415">
  <g id="Group_23" data-name="Group 23" transform="translate(0)">
    <g id="Group_13" data-name="Group 13">
      <g id="Group_9" data-name="Group 9" transform="translate(0 0)">
        <g id="Group_6" data-name="Group 6" transform="translate(0)">
          <path id="Path_24" data-name="Path 24" d="M8.57,0h94.274a8.57,8.57,0,0,1,8.57,8.57v94.274a8.57,8.57,0,0,1-8.57,8.57H8.57A8.57,8.57,0,0,1,0,102.844V8.57A8.57,8.57,0,0,1,8.57,0Z" transform="translate(0)"/>
        </g>
      </g>
    </g>
  </g>
  <path id="icons-nodejs" d="M64.778,6a.915.915,0,0,0-.915.915V23.629l-3.79-2.21a1.539,1.539,0,0,0-1.544,0l-9.105,5.31a1.532,1.532,0,0,0-.766,1.325V38.686a1.528,1.528,0,0,0,.766,1.325l9.105,5.31a1.539,1.539,0,0,0,1.544,0l9.105-5.31a1.532,1.532,0,0,0,.766-1.325V9.742a1.524,1.524,0,0,0-.754-1.313l-3.962-2.3A.9.9,0,0,0,64.778,6ZM34.973,21.212a1.538,1.538,0,0,0-.772.208l-9.106,5.31a1.532,1.532,0,0,0-.766,1.325V38.686a1.528,1.528,0,0,0,.766,1.325L34.2,45.32a1.54,1.54,0,0,0,1.544,0l9.105-5.31a1.532,1.532,0,0,0,.766-1.325V28.054a1.528,1.528,0,0,0-.766-1.325l-9.105-5.31A1.538,1.538,0,0,0,34.973,21.212Zm48.658,0a1.517,1.517,0,0,0-.772.208l-9.105,5.31a1.532,1.532,0,0,0-.766,1.325V38.686a1.528,1.528,0,0,0,.766,1.325l8.832,5.34a1.515,1.515,0,0,0,1.55.012l4.342-2.524a.68.68,0,0,0,0-1.176L79.069,36.12V30.661l4.562-2.655,4.562,2.655v3.8a.447.447,0,0,0,.713.416c1.15-.675,4.615-2.685,4.615-2.685a1.521,1.521,0,0,0,.754-1.313V28.054a1.528,1.528,0,0,0-.766-1.325L84.4,21.419A1.525,1.525,0,0,0,83.63,21.212Zm-72.986.006a1.518,1.518,0,0,0-.772.208l-9.105,5.3A1.541,1.541,0,0,0,0,28.06V41.632a.858.858,0,0,0,1.289.742l4.039-2.352a1.524,1.524,0,0,0,.754-1.313V30.673l4.562-2.661,4.562,2.661V38.71a1.524,1.524,0,0,0,.754,1.313L20,42.374a.857.857,0,0,0,1.289-.742V28.06a1.541,1.541,0,0,0-.766-1.33l-9.105-5.3A1.518,1.518,0,0,0,10.644,21.217ZM59.3,28.006l4.562,2.661v5.405L59.3,38.733,54.74,36.072V30.667ZM83.63,30.341l-2.607,1.521V34.9l2.607,1.514L86.238,34.9V31.861ZM46.852,42.487a1.84,1.84,0,0,0-.9.232L37.4,47.661a1.782,1.782,0,0,0-.9,1.556v9.872a1.83,1.83,0,0,0,.9,1.556l2.251,1.283a3.672,3.672,0,0,0,1.966.535,2.362,2.362,0,0,0,2.53-2.667V50.042a.25.25,0,0,0-.249-.255H42.813a.255.255,0,0,0-.255.255V59.8c0,.739-.781,1.5-2.055.861l-2.34-1.348a.276.276,0,0,1-.13-.226V49.211a.269.269,0,0,1,.13-.238l8.553-4.93a.278.278,0,0,1,.267,0l8.559,4.93a.252.252,0,0,1,.13.238v9.872a.283.283,0,0,1-.13.238l-8.559,4.948a.278.278,0,0,1-.267,0l-2.186-1.3a.251.251,0,0,0-.208-.018,5.12,5.12,0,0,1-1.289.594c-.149.046-.352.137.077.374L45.949,65.6a1.95,1.95,0,0,0,.9.238,1.655,1.655,0,0,0,.891-.249L56.3,60.645a1.782,1.782,0,0,0,.9-1.556V49.217a1.833,1.833,0,0,0-.9-1.556l-8.553-4.942A1.775,1.775,0,0,0,46.852,42.487Zm13.34,4.556a1.642,1.642,0,1,0,1.639,1.639A1.623,1.623,0,0,0,60.192,47.043Zm-.018.261a1.381,1.381,0,0,1,1.4,1.378,1.42,1.42,0,0,1-1.4,1.4,1.387,1.387,0,0,1,0-2.774Zm-.6.446V49.6h.351v-.736h.327c.134,0,.166.057.2.16,0,.015.056.494.071.582h.38a2.175,2.175,0,0,1-.089-.493c-.043-.237-.057-.4-.309-.416a.433.433,0,0,0,.356-.457c0-.49-.425-.487-.647-.487Zm.351.3h.3c.091,0,.267,0,.267.249a.25.25,0,0,1-.285.267h-.279Zm-10.78,1.509c-2.442,0-3.89,1.041-3.89,2.756,0,1.879,1.451,2.382,3.79,2.619,2.8.28,3.017.682,3.017,1.23,0,.961-.771,1.36-2.578,1.36-2.266,0-2.764-.562-2.928-1.687a.248.248,0,0,0-.255-.208H45.189a.25.25,0,0,0-.25.255c0,1.435.782,3.154,4.526,3.154,2.746,0,4.3-1.067,4.3-2.934,0-1.849-1.245-2.341-3.879-2.7-2.664-.356-2.928-.535-2.928-1.158,0-.517.218-1.194,2.186-1.194,1.761,0,2.417.385,2.685,1.568a.23.23,0,0,0,.231.19h1.111a.251.251,0,0,0,.178-.071.223.223,0,0,0,.059-.19C53.233,50.505,51.885,49.556,49.145,49.556Z" transform="translate(8.57 19.711)" fill="#fff"/>
</svg>
