<svg id="nodejs2-icon" xmlns="http://www.w3.org/2000/svg" width="111.415" height="111.415" viewBox="0 0 111.415 111.415">
  <g id="Group_22" data-name="Group 22" transform="translate(0)">
    <g id="Group_13" data-name="Group 13" transform="translate(0 0)">
      <g id="Group_9" data-name="Group 9" transform="translate(0 0)">
        <g id="Group_6" data-name="Group 6" transform="translate(0)">
          <path id="Path_24" data-name="Path 24" d="M8.57,0h94.274a8.57,8.57,0,0,1,8.57,8.57v94.274a8.57,8.57,0,0,1-8.57,8.57H8.57A8.57,8.57,0,0,1,0,102.844V8.57A8.57,8.57,0,0,1,8.57,0Z" transform="translate(0)"/>
        </g>
      </g>
    </g>
  </g>
  <path id="icon-node-js" d="M41.784,3a6.657,6.657,0,0,0-3.292.849L7.273,21.871A6.627,6.627,0,0,0,4,27.574v32.7a6.588,6.588,0,0,0,3.273,5.7l8.2,4.725c3.969,1.953,5.385,1.951,7.18,1.951,5.891,0,9.26-3.559,9.26-9.734V29.18A.915.915,0,0,0,31,28.263H27.061a.9.9,0,0,0-.917.917V62.885c0,2.772-2.863,5.48-7.494,3.181l-8.571-4.947a.954.954,0,0,1-.5-.849V27.6a1.012,1.012,0,0,1,.5-.886L41.3,8.7a.915.915,0,0,1,.978,0L73.5,26.719a1,1,0,0,1,.5.855v32.7a.991.991,0,0,1-.474.849L42.276,79.171a1.072,1.072,0,0,1-.978,0l-8.035-4.756a.722.722,0,0,0-.751-.061A21.24,21.24,0,0,1,27.787,76.5c-.5.158-1.292.472.283,1.354l10.423,6.177a6.6,6.6,0,0,0,6.584,0L76.332,65.974a6.588,6.588,0,0,0,3.273-5.7V27.6a6.588,6.588,0,0,0-3.273-5.7L45.076,3.849A6.658,6.658,0,0,0,41.784,3Zm8.4,25.22C41.268,28.22,35.945,32,35.945,38.3c0,6.836,5.288,8.723,13.856,9.574C60.04,48.88,60.827,50.4,60.827,52.413c0,3.465-2.8,4.947-9.383,4.947-8.285,0-10.113-2.082-10.712-6.178a.882.882,0,0,0-.88-.757H35.785a.882.882,0,0,0-.88.886c0,5.261,2.867,11.524,16.539,11.524C61.336,62.836,67,58.934,67,52.13c0-6.741-4.568-8.541-14.145-9.832-9.734-1.26-10.712-1.922-10.712-4.19,0-1.89.853-4.374,8.036-4.374,6.395,0,8.788,1.382,9.764,5.7a.909.909,0,0,0,.88.726h4.067a.933.933,0,0,0,.658-.314.851.851,0,0,0,.221-.7C65.144,31.713,60.2,28.22,50.183,28.22Z" transform="translate(13.855 11.998)" fill="#f2f2f2"/>
</svg>
