<svg id="postgresql-icon" xmlns="http://www.w3.org/2000/svg" width="111.415" height="111.415" viewBox="0 0 111.415 111.415">
  <g id="Group_15" data-name="Group 15" transform="translate(0 0)">
    <g id="Group_9" data-name="Group 9" transform="translate(0)">
      <g id="Group_6" data-name="Group 6" transform="translate(0)">
        <path id="Path_24" data-name="Path 24" d="M8.57,0h94.274a8.57,8.57,0,0,1,8.57,8.57v94.274a8.57,8.57,0,0,1-8.57,8.57H8.57A8.57,8.57,0,0,1,0,102.844V8.57A8.57,8.57,0,0,1,8.57,0Z" transform="translate(0)"/>
      </g>
    </g>
  </g>
  <g id="Group_1" data-name="Group 1" transform="translate(21.426 18.569)">
    <path id="icon-postgresql" d="M55.625,2.1a26.522,26.522,0,0,0-6.641.992,31.325,31.325,0,0,1,6.81,4.151c2.659,2.322,4.151,4.65,6.809,8.47a13.833,13.833,0,0,1,1.822,3.813,13.78,13.78,0,0,1,.5,4.319,40.4,40.4,0,0,1-.337,4.812,9.255,9.255,0,0,1-.324,2,1.225,1.225,0,0,1-.169.661,6.146,6.146,0,0,0,.169,1.829c0,.661.162,1.329.162,2.49a19.682,19.682,0,0,1-.162,5.474v.668a13.436,13.436,0,0,1-1.5,4.313c.169.337.331.5.5.83a26.3,26.3,0,0,0,2.153-3.645,60.957,60.957,0,0,0,3.988-9.131,84.3,84.3,0,0,0,2.821-9.8c1.161-4.981,1.329-7.3.83-9.961a8.707,8.707,0,0,0-1.161-3.82,14.157,14.157,0,0,0-6.641-5.811A22.563,22.563,0,0,0,55.625,2.1Zm-35.967.733a14.774,14.774,0,0,0-6.868,1.42A12.963,12.963,0,0,0,7.479,8.405a15.785,15.785,0,0,0-2.821,6.972c-.5,2.49-.668,5.486.331,11.129.661,3.982,1.329,6.641,2.659,12.114.169.668,1.161,3.658,3.32,10.3l.162.331A17.262,17.262,0,0,0,14.62,55.39c1.492,1.66,2.821,2.659,3.988,2.659h.324c2.159,0,3.658-1.66,4.981-2.99,0-.169,3.158-3.982,4.319-5.311-.169-.169-.493-.169-.661-.337a13.363,13.363,0,0,1-4.65-4.981,14.252,14.252,0,0,1-1.5-9.131l.169-2.815a38.671,38.671,0,0,1,.337-13.119c.662-3.651,1.492-7.3,4.475-11.122a15.773,15.773,0,0,1,3.32-3.32,24.192,24.192,0,0,0-8.3-1.991C20.884,2.886,20.294,2.847,19.659,2.834Zm20.856,1.42a12.376,12.376,0,0,0-2.49.169,15.115,15.115,0,0,0-8.963,5.642c-2.49,3.158-3.152,6.142-3.813,9.63a29.625,29.625,0,0,0-.506,3.82,10.55,10.55,0,0,1,4.319-2.328c1.161-.331,4.151-1.323,6.641.169.83.5,1.991,1.5,3.152,4.319a22.8,22.8,0,0,1-.324,14.773,6.481,6.481,0,0,1-.668,1.492,17.9,17.9,0,0,0-.992,2.827,22.178,22.178,0,0,0-.337,3.32,2.656,2.656,0,0,1,1.492.493,5.481,5.481,0,0,1,1.167,2.49,81.376,81.376,0,0,1,.331,9.3c0,2.659,0,5.149.162,6.81.337,3.82,1.5,6.472,3.158,7.8a6.616,6.616,0,0,0,3.483,1.161h.337c2.49,0,6.472-1.66,7.964-3.982a11.254,11.254,0,0,0,1.5-4.151c.169-1,.162-1.492.331-2.49,0-.5.169-1.329.169-2.322a23.023,23.023,0,0,1,.331-3c.169-2.821.661-6.135.83-7.964a10.492,10.492,0,0,1,1.991-5.149,4.156,4.156,0,0,1-2.983-2.821,9.749,9.749,0,0,1-1.336-3.158,24.153,24.153,0,0,0-1.66-3.982c-2.49-5.642-2.815-7.3-2.815-8.632-.169-1.829-.337-4.313,1.66-5.973a9.246,9.246,0,0,1,8.794-1.829v-.337a8.275,8.275,0,0,0-1.492-2.983c-2.49-3.82-3.82-5.811-6.148-7.8a23.778,23.778,0,0,0-7.134-4.151A20.2,20.2,0,0,0,40.515,4.255ZM58.868,23.723a5.443,5.443,0,0,0-4.073,1.29c-.661.662-.661,1.991-.493,3.152,0,.83.162,1.991,2.653,7.639a31.246,31.246,0,0,1,1.66,4.151,11.285,11.285,0,0,0,1.329,2.815,3.462,3.462,0,0,0,.661,1,6.649,6.649,0,0,0,.662-2.659l.169-.493a20.641,20.641,0,0,0,.169-4.65c0-1-.169-1.66-.169-2.16a11.577,11.577,0,0,1-.169-2.49c-.331-.5-.331-.661-.162-1,0-.331.162-.824.331-1.822a29.2,29.2,0,0,0,.337-3.82c-.337-.169-.5-.331-.83-.493A7.038,7.038,0,0,0,58.868,23.723Zm-25.96.655a7.565,7.565,0,0,0-3.016.467,10.061,10.061,0,0,0-3.813,2.322,15.368,15.368,0,0,0-1.5,1.66,24.438,24.438,0,0,0,.331,3.489v.169l-.331,3.32a10,10,0,0,0,1.161,7.134,8.7,8.7,0,0,0,3.489,3.82,11.652,11.652,0,0,0,3.813,1.5,26.712,26.712,0,0,1,.337-3.658,12.12,12.12,0,0,1,1.161-3.489,4.983,4.983,0,0,1,.668-1.323c.162-.5,2.484-6.81.324-12.62a4.264,4.264,0,0,0-1.66-2.49A2.445,2.445,0,0,0,32.908,24.378Zm24.358.947a1.5,1.5,0,0,1,1.018.182c.5.331-.169,1.161-.337,1.329a2.491,2.491,0,0,1-.992.668c-.661.162-1.161-.337-1.329-.337-.169-.169-.661-.661-.493-1.161.162-.331.331-.331.992-.5A4.718,4.718,0,0,1,57.266,25.325ZM32.311,26.7a3.5,3.5,0,0,1,1.4.3c.5.169.992.337.992.668.169.5-.324.83-.493.992a2.132,2.132,0,0,1-1.329.506,1.947,1.947,0,0,1-1.66-1,.723.723,0,0,1-.162-.83.882.882,0,0,1,.662-.5A1.885,1.885,0,0,1,32.311,26.7ZM62.766,48.419a9.363,9.363,0,0,0-2.16,4.65,1.478,1.478,0,0,1-.169.83,9.3,9.3,0,0,0,3.658.169,9.427,9.427,0,0,0,4.812-2c1.161-.83,2.659-2.49,2.322-3.152-.162-.331-.662-.169-3.32,0-.662,0-2.653.5-3.982.169H63.6A1.7,1.7,0,0,1,62.766,48.419Zm-28.891,3.32A7.511,7.511,0,0,1,32.72,52.9a14.345,14.345,0,0,1-4.656,1.829c-1.492.5-2.322.5-2.322,1-.169.662,1.492,1.492,2.322,1.822a9.879,9.879,0,0,0,6.148.331,22.154,22.154,0,0,0,1.991-1,38.234,38.234,0,0,0-.331-4.812V51.9H35.7A7.325,7.325,0,0,1,33.874,51.739Z" transform="translate(-4.26 -2.102)" fill="#fff"/>
  </g>
</svg>
