<svg id="python-icon" xmlns="http://www.w3.org/2000/svg" width="111.415" height="111.415" viewBox="0 0 111.415 111.415">
  <g id="Group_9" data-name="Group 9" transform="translate(0 0)">
    <g id="Group_6" data-name="Group 6" transform="translate(0)">
      <path id="Path_24" data-name="Path 24" d="M8.57,0h94.274a8.57,8.57,0,0,1,8.57,8.57v94.274a8.57,8.57,0,0,1-8.57,8.57H8.57A8.57,8.57,0,0,1,0,102.844V8.57A8.57,8.57,0,0,1,8.57,0Z" transform="translate(0)"/>
    </g>
  </g>
  <g id="icons-python" transform="translate(12.141 12.856)">
    <path id="Path_15" data-name="Path 15" d="M48.872,5a48.869,48.869,0,0,0-8.951.835c-8.751,1.524-10.345,4.723-10.345,10.62v9.012H50.043v4.548H18.906c-5.995,0-11.241,2.824-12.9,9.594C4.125,47.38,4.041,52.247,6,60.361c1.49,6.051,4.771,10.588,10.768,10.588h8.26V59.342c0-6.745,6.108-13.408,13.108-13.408H54.594c5.738,0,11.37-4.234,11.37-9.954V16.455c0-5.547-4-9.694-9.592-10.625A38.7,38.7,0,0,0,48.872,5ZM37.538,14.1a3.411,3.411,0,1,1,0,6.822,3.411,3.411,0,1,1,0-6.822Z" transform="translate(-4.563 -5)" fill="#fff"/>
    <path id="Path_16" data-name="Path 16" d="M32.654,79.949a48.87,48.87,0,0,0,8.951-.835c8.751-1.524,10.345-4.723,10.345-10.62V59.482H31.483V54.934H62.622c5.995,0,11.241-2.824,12.9-9.594,1.878-7.771,1.963-12.637,0-20.751C74.034,18.537,70.752,14,64.755,14H56.5V25.607c0,6.745-6.108,13.408-13.108,13.408H26.932c-5.738,0-11.37,4.234-11.37,9.954V68.494c0,5.547,4,9.694,9.592,10.625A38.7,38.7,0,0,0,32.654,79.949Zm11.336-9.1a3.411,3.411,0,1,1,0-6.822,3.411,3.411,0,1,1,0,6.822Z" transform="translate(9.452 6.467)" fill="#fff"/>
  </g>
</svg>
