<svg xmlns="http://www.w3.org/2000/svg" width="271.196" height="182.176" viewBox="0 0 271.196 182.176">
  <g id="favicon" transform="translate(-851 -4573)">
    <path id="trademark" d="M148.316,137.018,166.2,153.926l-9.01,8.027a60.67,60.67,0,0,1-101.272-44.9c0-33.276,27.22-60.349,60.677-60.349A60.786,60.786,0,0,1,157.05,72.153l8.681,7.733L148.594,97.339,140.985,90.5a36.33,36.33,0,0,0-24.392-9.126c-20.1,0-36.445,16.008-36.445,35.682,0,19.753,16.349,35.823,36.445,35.823a36.383,36.383,0,0,0,24.392-9.268Z" transform="translate(924.031 4547.001)"/>
    <g id="letter" transform="translate(851 4573)">
      <path id="Path_198" data-name="Path 198" d="M66.917,220.6a12.732,12.732,0,0,0-12.722-12.722H31.8a6.38,6.38,0,0,1-6.361-6.361V82.954A6.38,6.38,0,0,1,31.8,76.594H54.6a12.722,12.722,0,0,0,0-25.444H31.8A31.843,31.843,0,0,0,0,82.954V201.521a31.843,31.843,0,0,0,31.8,31.8H54.174A12.736,12.736,0,0,0,66.917,220.6Z" transform="translate(0 -51.15)"/>
      <path id="Path_199" data-name="Path 199" d="M657.146,233.326h22.369a31.843,31.843,0,0,0,31.8-31.8V82.954a31.843,31.843,0,0,0-31.8-31.8H656.722a12.722,12.722,0,1,0,0,25.444h22.793a6.38,6.38,0,0,1,6.361,6.361V201.521a6.38,6.38,0,0,1-6.361,6.361H657.146a12.722,12.722,0,0,0,0,25.444Z" transform="translate(-440.123 -51.15)"/>
      <path id="Path_200" data-name="Path 200" d="M349.525,301.305A34.425,34.425,0,0,0,355.1,282.5c0-7.379-1.548-13.591-4.665-18.595a32.82,32.82,0,0,0-12.913-11.874c-5.492-2.884-13.973-5.7-25.444-8.4q-17.206-4.071-21.669-7.8a8.978,8.978,0,0,1-3.5-7.082,8.5,8.5,0,0,1,3.753-7.251q5.82-4.23,16.093-4.219,9.955,0,14.927,3.944a16.012,16.012,0,0,1,4.792,6.743,9.369,9.369,0,0,0,9.075,5.894l5.619-.254a9.345,9.345,0,0,0,8.354-12.531,32.674,32.674,0,0,0-9.457-13.676q-11.1-9.637-33.1-9.647-13.454,0-22.984,4.071A31.9,31.9,0,0,0,269.4,213.652a30.048,30.048,0,0,0-5.068,16.687q0,13.867,10.75,23.493,7.633,6.838,26.61,11.556,14.725,3.658,18.871,5.089c4.029,1.442,6.87,3.117,8.481,5.067a10.646,10.646,0,0,1,2.438,7.039q0,6.456-5.767,11.28c-3.859,3.223-9.563,4.813-17.174,4.813q-10.75,0-17.09-5.407a23.665,23.665,0,0,1-6.615-10.114,9.325,9.325,0,0,0-9.669-6.106l-4.771.466a9.345,9.345,0,0,0-7.993,12.107,39.682,39.682,0,0,0,11.874,18.722q11.863,10.241,34.009,10.241,15.2,0,25.4-4.262A33.261,33.261,0,0,0,349.525,301.305Z" transform="translate(-228.329 -166.666)"/>
    </g>
  </g>
</svg>
