<svg xmlns="http://www.w3.org/2000/svg" width="72.655" height="55.343" viewBox="0 0 72.655 55.343">
  <g id="mail" transform="translate(0 -61)">
    <g id="Group_523" data-name="Group 523" transform="translate(3.65 61)">
      <g id="Group_522" data-name="Group 522" transform="translate(0 0)">
        <path id="Path_199" data-name="Path 199" d="M88.341,61H28.457a6.311,6.311,0,0,0-2.736.64L58.257,94.176l7.292-7.008h0L91.078,61.641A6.312,6.312,0,0,0,88.341,61Z" transform="translate(-25.721 -61)"/>
      </g>
    </g>
    <g id="Group_525" data-name="Group 525" transform="translate(47.994 64.651)">
      <g id="Group_524" data-name="Group 524">
        <path id="Path_200" data-name="Path 200" d="M362.235,86.728l-24.022,24.021,24.021,24.021a6.311,6.311,0,0,0,.64-2.736V89.463A6.311,6.311,0,0,0,362.235,86.728Z" transform="translate(-338.213 -86.728)"/>
      </g>
    </g>
    <g id="Group_527" data-name="Group 527" transform="translate(0 64.65)">
      <g id="Group_526" data-name="Group 526" transform="translate(0 0)">
        <path id="Path_201" data-name="Path 201" d="M.64,86.721A6.312,6.312,0,0,0,0,89.457v42.572a6.313,6.313,0,0,0,.639,2.735l24.022-24.021Z" transform="translate(0 -86.721)"/>
      </g>
    </g>
    <g id="Group_529" data-name="Group 529" transform="translate(3.649 91.681)">
      <g id="Group_528" data-name="Group 528">
        <path id="Path_202" data-name="Path 202" d="M67.049,277.211l-7.293,7.009a2.127,2.127,0,0,1-3.01,0l-7.01-7.009L25.714,301.232a6.312,6.312,0,0,0,2.737.641H88.335a6.311,6.311,0,0,0,2.736-.64Z" transform="translate(-25.714 -277.211)"/>
      </g>
    </g>
  </g>
</svg>
