<svg id="php-icon" xmlns="http://www.w3.org/2000/svg" width="111.415" height="111.415" viewBox="0 0 111.415 111.415">
  <g id="Group_19" data-name="Group 19">
    <g id="Group_17" data-name="Group 17" transform="translate(0 0)">
      <g id="Group_15" data-name="Group 15" transform="translate(0)">
        <g id="Group_9" data-name="Group 9" transform="translate(0)">
          <g id="Group_6" data-name="Group 6" transform="translate(0)">
            <path id="Path_24" data-name="Path 24" d="M8.57,0h94.274a8.57,8.57,0,0,1,8.57,8.57v94.274a8.57,8.57,0,0,1-8.57,8.57H8.57A8.57,8.57,0,0,1,0,102.844V8.57A8.57,8.57,0,0,1,8.57,0Z" transform="translate(0)"/>
          </g>
        </g>
      </g>
    </g>
  </g>
  <g id="Group_20" data-name="Group 20" transform="translate(7.856 32.139)">
    <g id="php-icon-2" data-name="php-icon" transform="translate(0)">
      <path id="Path_17" data-name="Path 17" d="M7.536,10.123H21.659q6.218.052,9.011,3.583t1.844,9.644a18.5,18.5,0,0,1-1.634,5.481,16.291,16.291,0,0,1-3.373,4.848,11.772,11.772,0,0,1-5.639,3.478,25.961,25.961,0,0,1-6.218.738H9.327l-2,10.012H0L7.536,10.123h0M13.7,16.13,10.539,31.94a3.877,3.877,0,0,0,.632.053h.738a27.71,27.71,0,0,0,8.432-1q3.372-1.107,4.532-7.694.949-5.533-1.9-6.376a23.647,23.647,0,0,0-7.009-.79q-.632.052-1.212.053H13.649l.053-.053" transform="translate(0 -0.058)" fill="#fff"/>
      <path id="Path_18" data-name="Path 18" d="M41.049,0h7.272L46.266,10.065H52.8q5.375.106,8.01,2.213,2.688,2.107,1.581,8.01L58.861,37.837H51.483l3.373-16.758q.526-2.635-.316-3.742T50.9,16.231l-5.849-.053L40.733,37.837H33.461L41.049,0h0" transform="translate(-0.191)" fill="#fff"/>
      <path id="Path_19" data-name="Path 19" d="M70.369,10.123H84.492q6.218.052,9.011,3.583t1.844,9.644a18.5,18.5,0,0,1-1.634,5.481,16.292,16.292,0,0,1-3.373,4.848A11.772,11.772,0,0,1,84.7,37.157a25.961,25.961,0,0,1-6.218.738H72.16l-2,10.012H62.833l7.536-37.784h0m6.166,6.007L73.372,31.94a3.877,3.877,0,0,0,.632.053h.738a27.71,27.71,0,0,0,8.432-1q3.372-1.107,4.532-7.694.949-5.533-1.9-6.376a23.647,23.647,0,0,0-7.009-.79q-.632.052-1.212.053H76.482l.053-.053" transform="translate(-0.359 -0.058)" fill="#fff"/>
    </g>
  </g>
</svg>
