<svg id="react-icon" xmlns="http://www.w3.org/2000/svg" width="111.415" height="111.415" viewBox="0 0 111.415 111.415">
  <g id="Group_6" data-name="Group 6">
    <path id="Path_24" data-name="Path 24" d="M8.57,0h94.274a8.57,8.57,0,0,1,8.57,8.57v94.274a8.57,8.57,0,0,1-8.57,8.57H8.57A8.57,8.57,0,0,1,0,102.844V8.57A8.57,8.57,0,0,1,8.57,0Z" transform="translate(0)"/>
  </g>
  <g id="react-native" transform="translate(16.427 17.855)">
    <path id="Path_12" data-name="Path 12" d="M43.19,50.687C19.527,50.687,1,42.616,1,32.344S19.527,14,43.19,14s42.19,8.071,42.19,18.344S66.853,50.687,43.19,50.687Zm0-33.018c-23.113,0-38.522,7.521-38.522,14.675S20.077,47.018,43.19,47.018,81.712,39.5,81.712,32.344,66.3,17.669,43.19,17.669Z" transform="translate(-1 5.35)" fill="#fff"/>
    <path id="Path_13" data-name="Path 13" d="M19.753,78.93a8.471,8.471,0,0,1-4.769-1.284c-8.988-5.136-6.6-25.131,5.136-45.676h0c5.5-9.539,12.29-17.61,18.894-22.746,7.154-5.5,13.574-7.154,17.977-4.586,4.586,2.568,6.237,8.988,5.136,17.977-1.1,8.438-4.769,18.344-10.272,27.882S39.564,68.107,32.96,73.243C28.191,76.912,23.6,78.93,19.753,78.93ZM52.4,7.023c-2.935,0-6.787,1.651-11.006,4.953C35.161,16.928,28.741,24.633,23.421,33.8h0C11.865,53.8,10.764,71.042,16.818,74.527c3.118,1.834,8.255.183,13.941-4.219C37,65.355,43.416,57.651,48.735,48.479s8.8-18.527,9.906-26.415c.917-7.337-.183-12.474-3.3-14.308A7.691,7.691,0,0,0,52.4,7.023Z" transform="translate(6.112 -3.448)" fill="#fff"/>
    <path id="Path_14" data-name="Path 14" d="M52.582,78.933c-9.172,0-22.379-11.19-32.285-28.616C8.374,29.772,5.989,9.778,14.977,4.641h0c8.988-5.136,25.131,6.787,37.054,27.332,5.5,9.539,9.172,19.444,10.272,27.882,1.284,8.988-.55,15.225-5.136,17.977A9.945,9.945,0,0,1,52.582,78.933ZM16.812,7.76c-6.053,3.485-4.953,20.728,6.6,40.723S49.28,78.016,55.333,74.53c3.118-1.834,4.219-6.971,3.3-14.308-1.1-7.888-4.586-17.243-9.906-26.415C37.173,13.813,22.865,4.275,16.812,7.76Z" transform="translate(6.118 -3.451)" fill="#fff"/>
    <circle id="Ellipse_1" data-name="Ellipse 1" cx="7.337" cy="7.337" r="7.337" transform="translate(34.853 30.357)" fill="#fff"/>
  </g>
</svg>
