<svg id="xd-icon" xmlns="http://www.w3.org/2000/svg" width="111.415" height="111.415" viewBox="0 0 111.415 111.415">
  <g id="Group_17" data-name="Group 17" transform="translate(0 0)">
    <g id="Group_15" data-name="Group 15" transform="translate(0)">
      <g id="Group_9" data-name="Group 9" transform="translate(0)">
        <g id="Group_6" data-name="Group 6" transform="translate(0)">
          <path id="Path_24" data-name="Path 24" d="M8.57,0h94.274a8.57,8.57,0,0,1,8.57,8.57v94.274a8.57,8.57,0,0,1-8.57,8.57H8.57A8.57,8.57,0,0,1,0,102.844V8.57A8.57,8.57,0,0,1,8.57,0Z" transform="translate(0)"/>
        </g>
      </g>
    </g>
  </g>
  <path id="icon-adobe-xd" d="M43.867,79.841l-7.52-19.133L28.873,79.841H16.047l13.16-27.6L16.31,25.1H28.982l7.366,18.8,7.366-18.8H56.385L43.527,52.245l13.16,27.6Zm47.262,0H81.466L80.979,75.7q-3.272,4.889-8.424,4.889A11.116,11.116,0,0,1,62.8,75.7q-3.368-4.889-3.439-14.359v-3.08q0-10,3.381-14.924a11.193,11.193,0,0,1,9.849-4.928,9.5,9.5,0,0,1,7.821,4.061V22.1H91.122V79.841ZM75.672,47.317a4.58,4.58,0,0,0-4.286,2.368q-1.357,2.368-1.354,8.424v2.817q0,6.015,1.277,8.405a4.5,4.5,0,0,0,4.324,2.387A5.185,5.185,0,0,0,80.407,68.9V50.326A5.063,5.063,0,0,0,75.672,47.317Z" transform="translate(1.842 4.398)" fill="#fff"/>
</svg>
